<svg width="64" height="64" viewBox="0 0 64 64" fill="none" xmlns="http://www.w3.org/2000/svg">
<path d="M44.741 22.333C45.924 20.554 47.04 17.616 44.286 14.842C41.518 12.057 43.358 8 43.358 8C43.358 8 37.544 13.363 41.216 17.061C43.349 19.208 43.879 20.947 43.879 22.147C40.988 21.548 37.773 21.165 34.347 21.043C35.741 18.569 36.697 14.895 33.338 11.409C29.648 7.58 32.104 2 32.104 2C32.104 2 24.351 9.374 29.248 14.458C31.851 17.16 32.659 19.385 32.777 21.008C32.518 21.005 32.261 21 32 21C28.887 21 25.918 21.216 23.173 21.612C24.14 19.82 24.693 17.268 22.284 14.842C19.516 12.058 21.357 8 21.357 8C21.357 8 15.543 13.363 19.214 17.061C21.161 19.021 21.768 20.637 21.86 21.818C12.457 23.417 5.998 27.204 6 31.752C6.003 31.99 6.025 32.227 6.055 32.404C6.322 35.08 7.641 44.37 13.403 52.251L12.383 55.051L19.427 57.614C19.468 57.638 19.513 57.66 19.554 57.683C20.148 58.447 21.038 59.298 22.378 60.083C23.722 60.869 26.92 62 31.998 62C37.078 62 40.278 60.869 41.62 60.084C42.958 59.3 43.847 58.449 44.44 57.688C47.076 56.153 49.117 54.262 50.476 52.425C56.338 44.512 57.674 35.1 57.937 32.455C57.973 32.223 57.995 31.988 58 31.707C58 27.623 52.712 24.143 44.741 22.333ZM20.858 48.189V47.65C21.1326 47.7739 21.3505 47.9965 21.4685 48.2737C21.5865 48.5508 21.596 48.8622 21.495 49.146C21.3766 49.4355 21.1506 49.6679 20.8646 49.7944C20.5786 49.9209 20.2546 49.9318 19.9608 49.8247C19.6669 49.7176 19.4259 49.5009 19.2884 49.22C19.1508 48.9391 19.1274 48.6158 19.223 48.318C19.2778 48.1674 19.3622 48.0292 19.4713 47.9117C19.5803 47.7943 19.7118 47.6998 19.858 47.634V48.189H20.858ZM55.998 31.731C55.994 31.8898 55.9793 32.0482 55.954 32.205C55.697 34.771 54.428 43.732 48.869 51.234C46.11 54.963 40.23 58.947 32 58.947C28.557 58.947 25.531 58.244 22.967 57.16L24.655 52.519L21.235 46.324L20.858 46.469V38.578C24.126 39.277 27.93 39.682 31.998 39.682C42.608 39.682 51.463 36.952 53.537 33.317C51.463 29.684 42.608 26.952 31.998 26.952C21.388 26.952 12.535 29.684 10.456 33.317C11.655 35.413 15.116 37.205 19.858 38.349V46.856L14.631 48.872L14.236 49.956C9.432 42.74 8.286 34.625 8.038 32.15C8.01412 32.0035 8.00076 31.8554 7.998 31.707C7.998 28.65 13.113 25.444 21.414 23.917C21.382 23.968 21.357 24 21.357 24L21.45 23.91C24.558 23.342 28.098 23 32 23C46.356 23 56 27.501 56.003 31.628L55.998 31.731Z" fill="#284958"/>
</svg>
