<svg width="393" height="1032" viewBox="0 0 393 1032" fill="none" xmlns="http://www.w3.org/2000/svg">
<path d="M13 846C11 838.5 0 835 0 835H161.5H206H393C393 835 378 843.5 370.5 856C363 868.5 364 877 363.5 889C363 901 368.5 906.5 369 912C369.5 917.5 365 924 359.5 924C354 924 349.149 920.426 347.5 914.5C345.851 908.574 348.5 902.5 350.5 895C352.5 887.5 351 882.5 348 879C348 879 344.5 874 335.5 877.5C326.5 881 325 889 323.5 900C322 911 323.5 932 323.5 945.5C323.5 959 333 994 333.5 1007C334 1020 322 1031.5 312.5 1031.5C303 1031.5 293 1028 291.5 1007C290 986 295.5 974 301.5 945.5C307.5 917 305.5 904.5 299 895C292.5 885.5 292 884 280 882C268 880 260.5 889.5 259 906.5C257.5 923.5 260 934 263.5 949.5C267 965 260.5 973.5 247.5 973C234.5 972.5 228.5 966 231 950.5C233.5 935 236.5 928 239 913.5C241.5 899 241 874 236.5 863.5C236.5 863.5 236.5 861.75 233.5 856.5C227.5 846 206 835 206 835H161.5C161.5 835 137.5 843 132 849.5C126.5 856 126.5 857.5 125 864.5C123.5 866.5 123 868.5 119.5 869.5C116 870.5 112 870 108.5 868.5C105 867 103.5 863 90 864.5C90 864.5 84.5 864 79 877C73.5 890 84.5 920.5 85 930C85.5 939.5 79 945.5 69.5 945.5C60 945.5 54.5 941 54 930C53.5 919 63 893 64.5 878C65 869 69 849.5 49 846C45.5 846 45 846 40 849.5C35 853 36 858 27 859C18 860 15 853.5 13 846Z" fill="#284958"/>
<rect y="-17" width="393" height="852" fill="#284958"/>
</svg>
